<svg width="41" height="40" viewBox="0 0 41 40" fill="none" xmlns="http://www.w3.org/2000/svg">
<g clip-path="url(#clip0)">
<g filter="url(#filter0_dd)">
<path d="M8.70557 15.3333C7.79411 15.3333 6.93962 15.5026 6.14209 15.8411C5.34456 16.1796 4.64388 16.6367 4.04004 17.2122C3.4362 17.7877 2.96338 18.4761 2.62158 19.2773C2.27979 20.0785 2.10319 20.9305 2.0918 21.8333C2.0918 22.7361 2.2627 23.5768 2.60449 24.3554C2.94629 25.1341 3.41341 25.8224 4.00586 26.4205C4.59831 27.0186 5.29899 27.4869 6.10791 27.8255C6.91683 28.164 7.76562 28.3333 8.6543 28.3333H28.3418C29.5495 28.3333 30.6831 28.1076 31.7427 27.6562C32.8022 27.2048 33.7308 26.5898 34.5283 25.8112C35.3258 25.0325 35.9525 24.1128 36.4082 23.052C36.8639 21.9913 37.0918 20.8628 37.0918 19.6666C37.0918 18.4704 36.8639 17.3476 36.4082 16.2981C35.9525 15.2487 35.3315 14.329 34.5454 13.539C33.7593 12.7491 32.8307 12.1284 31.7598 11.677C30.6888 11.2257 29.5495 11 28.3418 11C27.8177 11 27.2879 11.0507 26.7524 11.1523C26.2967 10.4526 25.7726 9.82635 25.1802 9.2734C24.5877 8.72045 23.9326 8.24649 23.2148 7.85152C22.4971 7.45656 21.7451 7.16315 20.959 6.97131C20.1729 6.77947 19.3525 6.67791 18.498 6.66663C17.2334 6.66663 16.0428 6.88668 14.9263 7.32678C13.8097 7.76689 12.8128 8.37062 11.9355 9.13798C11.0583 9.90534 10.3462 10.825 9.79932 11.8971C9.25244 12.9691 8.88786 14.1145 8.70557 15.3333Z" fill="url(#paint0_linear)"/>
</g>
<path d="M36.9719 18.9163C36.9719 22.8278 32.8049 25.2213 28.6792 25.2213C24.5535 25.2213 21.209 22.0503 21.209 18.1388C21.209 14.2272 24.5535 11.0563 28.6792 11.0563C32.8049 11.0563 36.9719 15.0047 36.9719 18.9163Z" fill="url(#paint1_linear)"/>
<path d="M26.2178 13.5348C24.5124 13.5348 22.9924 14.1335 21.8061 15.0842C21.8061 15.0842 21.769 15.0842 21.769 15.1194C22.4734 13.7109 23.6968 12.5489 25.1797 11.8798C23.9193 10.5065 22.1027 9.66138 20.0265 9.66138C16.2821 9.66138 13.2792 12.5489 13.2792 16.035C13.2792 16.5984 13.3533 17.1618 13.5016 17.69C12.9826 17.5139 12.4265 17.4083 11.8333 17.4083C9.23818 17.4083 7.125 19.4154 7.125 21.8452C7.125 24.2749 9.23818 26.282 11.8333 26.282C11.8704 26.282 11.9075 26.282 11.9075 26.282H26.0695C26.1066 26.282 26.1437 26.282 26.1807 26.282C29.9251 26.282 32.9281 23.3945 32.9281 19.9084C32.9281 16.4223 29.9251 13.5348 26.2178 13.5348Z" fill="url(#paint2_linear)"/>
<g filter="url(#filter1_d)">
<path d="M13.8737 21.5206L10.648 27.7722C10.4787 28.1782 10.3789 28.6215 10.3789 29.087C10.3789 29.5526 10.4787 29.9958 10.648 30.4019C10.8263 30.8213 11.0818 31.2021 11.4023 31.5189C11.7242 31.8357 12.1112 32.0856 12.5375 32.2611C12.9502 32.4292 13.4006 32.5259 13.8737 32.5259C14.3484 32.5259 14.7988 32.4292 15.21 32.2611C15.6378 32.0856 16.0233 31.8357 16.3452 31.5189C16.6672 31.2021 16.9227 30.8213 17.0995 30.4019C17.2703 29.9958 17.3686 29.5526 17.3686 29.087C17.3686 28.6215 17.2703 28.1782 17.0995 27.7722L13.8737 21.5206Z" fill="#A4D4FF"/>
<path d="M14.4687 22.6699L11.5992 28.2552C11.4471 28.6201 11.3574 29.0183 11.3574 29.4366C11.3574 29.8549 11.4471 30.2532 11.5992 30.6181C11.7594 30.9949 11.989 31.3371 12.2769 31.6217C12.5662 31.9064 12.9139 32.1309 13.2969 32.2886C13.6677 32.4396 14.0725 32.5265 14.4976 32.5265C14.924 32.5265 15.3288 32.4396 15.6982 32.2886C16.0826 32.1309 16.4289 31.9064 16.7182 31.6217C17.0075 31.3371 17.2371 30.9949 17.396 30.6181C17.5494 30.2532 17.6377 29.8549 17.6377 29.4366C17.6377 29.0183 17.5494 28.6201 17.396 28.2552L14.4687 22.6699Z" fill="url(#paint3_linear)"/>
</g>
<g filter="url(#filter2_d)">
<path d="M29.0561 29.2335L28.0446 28.66L27.4289 28.3071L28.0006 27.9541H28.0446L29.0561 27.3365C29.6279 26.9835 29.8478 26.2335 29.4959 25.66C29.1441 25.0865 28.3964 24.8659 27.8247 25.2188L26.8132 25.7924L26.1535 26.1453V25.4394V25.3953V24.2482C26.1535 23.5865 25.5817 23.0129 24.922 23.0129C24.3063 23.0129 23.7346 23.5865 23.7346 24.2482V25.3953V26.1453L23.1188 25.7924L22.1073 25.1747C21.5356 24.8218 20.7879 25.0424 20.4361 25.6159C20.0842 26.1894 20.3041 26.9394 20.8759 27.2924L21.8874 27.8659L22.5031 28.2188L21.8434 28.5718L20.8319 29.1453C20.2602 29.4982 20.0403 30.2482 20.3921 30.8218C20.7439 31.3953 21.4916 31.6159 22.0633 31.2629L23.0749 30.6894C23.0749 30.6894 23.0749 30.6894 23.1188 30.6453L23.6906 30.2924V31.0424V32.2776C23.6906 32.9394 24.2623 33.5129 24.922 33.5129C25.5817 33.5129 26.1535 32.9394 26.1535 32.2776V31.0865V31.0424V30.3806L26.7692 30.7335L27.7807 31.3071C28.3524 31.66 29.1001 31.4394 29.4519 30.8659C29.8478 30.2924 29.6279 29.5424 29.0561 29.2335Z" fill="url(#paint4_linear)"/>
</g>
<mask id="mask0" mask-type="alpha" maskUnits="userSpaceOnUse" x="20" y="23" width="10" height="11">
<g clip-path="url(#clip1)">
<path d="M29.0581 29.2335L28.0465 28.66L27.4308 28.3071L28.0026 27.9541H28.0465L29.0581 27.3365C29.6298 26.9835 29.8497 26.2335 29.4979 25.66C29.146 25.0865 28.3984 24.8659 27.8266 25.2188L26.8151 25.7924L26.1554 26.1453V25.4394V25.3953V24.2482C26.1554 23.5865 25.5837 23.0129 24.924 23.0129C24.3083 23.0129 23.7365 23.5865 23.7365 24.2482V25.3953V26.1453L23.1208 25.7924L22.1093 25.1747C21.5375 24.8218 20.7899 25.0424 20.438 25.6159C20.0862 26.1894 20.3061 26.9394 20.8778 27.2924L21.8894 27.8659L22.5051 28.2188L21.8454 28.5718L20.8338 29.1453C20.2621 29.4982 20.0422 30.2482 20.394 30.8218C20.7459 31.3953 21.4935 31.6159 22.0653 31.2629L23.0768 30.6894C23.0768 30.6894 23.0768 30.6894 23.1208 30.6453L23.6925 30.2924V31.0424V32.2776C23.6925 32.9394 24.2643 33.5129 24.924 33.5129C25.5837 33.5129 26.1554 32.9394 26.1554 32.2776V31.0865V31.0424V30.3806L26.7711 30.7335L27.7827 31.3071C28.3544 31.66 29.1021 31.4394 29.4539 30.8659C29.8497 30.2924 29.6298 29.5424 29.0581 29.2335Z" fill="#61A7E6"/>
</g>
</mask>
<g mask="url(#mask0)">
<path d="M24.875 34.9245V21.9098L28.3934 23.2333C28.9065 23.8216 30.0206 25.0421 30.3725 25.2186C30.7243 25.3951 30.8123 27.351 30.8123 28.3069L29.9327 32.2774L24.875 34.9245Z" fill="url(#paint5_linear)"/>
</g>
</g>
<defs>
<filter id="filter0_dd" x="0.0917969" y="4.66663" width="39" height="25.6667" filterUnits="userSpaceOnUse" color-interpolation-filters="sRGB">
<feFlood flood-opacity="0" result="BackgroundImageFix"/>
<feColorMatrix in="SourceAlpha" type="matrix" values="0 0 0 0 0 0 0 0 0 0 0 0 0 0 0 0 0 0 127 0" result="hardAlpha"/>
<feOffset/>
<feGaussianBlur stdDeviation="1"/>
<feColorMatrix type="matrix" values="0 0 0 0 0 0 0 0 0 0 0 0 0 0 0 0 0 0 0.2 0"/>
<feBlend mode="normal" in2="BackgroundImageFix" result="effect1_dropShadow"/>
<feColorMatrix in="SourceAlpha" type="matrix" values="0 0 0 0 0 0 0 0 0 0 0 0 0 0 0 0 0 0 127 0" result="hardAlpha"/>
<feOffset dx="0.5" dy="1"/>
<feGaussianBlur stdDeviation="0.5"/>
<feColorMatrix type="matrix" values="0 0 0 0 0 0 0 0 0 0 0 0 0 0 0 0 0 0 0.15 0"/>
<feBlend mode="normal" in2="effect1_dropShadow" result="effect2_dropShadow"/>
<feBlend mode="normal" in="SourceGraphic" in2="effect2_dropShadow" result="shape"/>
</filter>
<filter id="filter1_d" x="8.37891" y="21.5206" width="11.2588" height="15.0059" filterUnits="userSpaceOnUse" color-interpolation-filters="sRGB">
<feFlood flood-opacity="0" result="BackgroundImageFix"/>
<feColorMatrix in="SourceAlpha" type="matrix" values="0 0 0 0 0 0 0 0 0 0 0 0 0 0 0 0 0 0 127 0" result="hardAlpha"/>
<feOffset dy="2"/>
<feGaussianBlur stdDeviation="1"/>
<feColorMatrix type="matrix" values="0 0 0 0 0 0 0 0 0 0 0 0 0 0 0 0 0 0 0.25 0"/>
<feBlend mode="normal" in2="BackgroundImageFix" result="effect1_dropShadow"/>
<feBlend mode="normal" in="SourceGraphic" in2="effect1_dropShadow" result="shape"/>
</filter>
<filter id="filter2_d" x="18.2227" y="23.0129" width="13.4427" height="14.5" filterUnits="userSpaceOnUse" color-interpolation-filters="sRGB">
<feFlood flood-opacity="0" result="BackgroundImageFix"/>
<feColorMatrix in="SourceAlpha" type="matrix" values="0 0 0 0 0 0 0 0 0 0 0 0 0 0 0 0 0 0 127 0" result="hardAlpha"/>
<feOffset dy="2"/>
<feGaussianBlur stdDeviation="1"/>
<feColorMatrix type="matrix" values="0 0 0 0 0 0 0 0 0 0 0 0 0 0 0 0 0 0 0.25 0"/>
<feBlend mode="normal" in2="BackgroundImageFix" result="effect1_dropShadow"/>
<feBlend mode="normal" in="SourceGraphic" in2="effect1_dropShadow" result="shape"/>
</filter>
<linearGradient id="paint0_linear" x1="6.94746" y1="10.144" x2="36.1343" y2="28.5844" gradientUnits="userSpaceOnUse">
<stop stop-color="white"/>
<stop offset="0.551728" stop-color="#D9E7EF"/>
<stop offset="0.96875" stop-color="#ADDDF9"/>
</linearGradient>
<linearGradient id="paint1_linear" x1="26.118" y1="11.2586" x2="27.8531" y2="19.3926" gradientUnits="userSpaceOnUse">
<stop offset="0.265243" stop-color="#F4F8FA"/>
<stop offset="0.899425" stop-color="#F4F8FA" stop-opacity="0"/>
</linearGradient>
<linearGradient id="paint2_linear" x1="10.0993" y1="15.4138" x2="28.6403" y2="28.1745" gradientUnits="userSpaceOnUse">
<stop offset="0.0589154" stop-color="#BAD7E7"/>
<stop offset="0.464316" stop-color="#DEEBF2"/>
<stop offset="0.6583" stop-color="#DEEBF2"/>
<stop offset="1" stop-color="#BDE1F6"/>
</linearGradient>
<linearGradient id="paint3_linear" x1="11.9572" y1="30.8274" x2="17.9901" y2="26.178" gradientUnits="userSpaceOnUse">
<stop offset="0.213542" stop-color="#7DC2FF"/>
<stop offset="0.84375" stop-color="#2696EF"/>
</linearGradient>
<linearGradient id="paint4_linear" x1="21.4039" y1="27.5553" x2="24.9478" y2="27.7516" gradientUnits="userSpaceOnUse">
<stop stop-color="#8AC8FF"/>
<stop offset="0.651042" stop-color="#A4D4FF"/>
</linearGradient>
<linearGradient id="paint5_linear" x1="25.0571" y1="30.9539" x2="29.9118" y2="30.8888" gradientUnits="userSpaceOnUse">
<stop stop-color="#6BB5F8"/>
<stop offset="0.828125" stop-color="#2696EF"/>
</linearGradient>
<clipPath id="clip0">
<rect width="40" height="40" fill="white" transform="translate(0.425781)"/>
</clipPath>
<clipPath id="clip1">
<rect width="9.41169" height="10.5" fill="white" transform="translate(20.2617 23.0129)"/>
</clipPath>
</defs>
</svg>
